<svg width="28" height="28" viewBox="0 0 28 28" fill="none" xmlns="http://www.w3.org/2000/svg">
<g clip-path="url(#clip0_4051_9)">
<path d="M23.3333 4.66675L21 21.5834L14 23.9167L6.99996 21.5834L4.66663 4.66675H23.3333Z" stroke="#9290C3" stroke-width="1.75" stroke-linecap="round" stroke-linejoin="round"/>
<path d="M8.75 9.33325H12.25V18.6666L9.91667 17.4999" stroke="#9290C3" stroke-width="1.75" stroke-linecap="round" stroke-linejoin="round"/>
<path d="M19.25 9.33325H16.3333C16.1786 9.33325 16.0303 9.39471 15.9209 9.50411C15.8115 9.6135 15.75 9.76188 15.75 9.91659V13.4166C15.75 13.5713 15.8115 13.7197 15.9209 13.8291C16.0303 13.9385 16.1786 13.9999 16.3333 13.9999H17.9935C18.077 13.9999 18.1595 14.0179 18.2355 14.0525C18.3115 14.0872 18.3791 14.1377 18.4338 14.2008C18.4886 14.2638 18.5292 14.3379 18.5528 14.4179C18.5765 14.498 18.5827 14.5822 18.571 14.6649L18.0833 18.0833L15.75 18.6666" stroke="#9290C3" stroke-width="1.75" stroke-linecap="round" stroke-linejoin="round"/>
</g>
<defs>
<clipPath id="clip0_4051_9">
<rect width="28" height="28" fill="white"/>
</clipPath>
</defs>
</svg>
