<svg width="28" height="28" viewBox="0 0 28 28" fill="none" xmlns="http://www.w3.org/2000/svg">
<g clip-path="url(#clip0_4051_14)">
<path d="M14 10.5H5.83333C5.21449 10.5 4.621 10.7458 4.18342 11.1834C3.74583 11.621 3.5 12.2145 3.5 12.8333V17.5C3.5 18.1188 3.74583 18.7123 4.18342 19.1499C4.621 19.5875 5.21449 19.8333 5.83333 19.8333H9.33333" stroke="#9290C3" stroke-width="1.75" stroke-linecap="round" stroke-linejoin="round"/>
<path d="M14 17.5001H22.1667C22.7855 17.5001 23.379 17.2542 23.8166 16.8167C24.2542 16.3791 24.5 15.7856 24.5 15.1667V10.5001C24.5 9.88124 24.2542 9.28775 23.8166 8.85017C23.379 8.41258 22.7855 8.16675 22.1667 8.16675H18.6667" stroke="#9290C3" stroke-width="1.75" stroke-linecap="round" stroke-linejoin="round"/>
<path d="M9.33337 10.5V5.83333C9.33337 5.21449 9.57921 4.621 10.0168 4.18342C10.4544 3.74583 11.0479 3.5 11.6667 3.5H16.3334C16.9522 3.5 17.5457 3.74583 17.9833 4.18342C18.4209 4.621 18.6667 5.21449 18.6667 5.83333V11.6667C18.6667 12.2855 18.4209 12.879 17.9833 13.3166C17.5457 13.7542 16.9522 14 16.3334 14H11.6667C11.0479 14 10.4544 14.2458 10.0168 14.6834C9.57921 15.121 9.33337 15.7145 9.33337 16.3333V22.1667C9.33337 22.7855 9.57921 23.379 10.0168 23.8166C10.4544 24.2542 11.0479 24.5 11.6667 24.5H16.3334C16.9522 24.5 17.5457 24.2542 17.9833 23.8166C18.4209 23.379 18.6667 22.7855 18.6667 22.1667V17.5" stroke="#9290C3" stroke-width="1.75" stroke-linecap="round" stroke-linejoin="round"/>
<path d="M12.8334 7V7.01167" stroke="#9290C3" stroke-width="1.75" stroke-linecap="round" stroke-linejoin="round"/>
<path d="M15.1666 21V21.0117" stroke="#9290C3" stroke-width="1.75" stroke-linecap="round" stroke-linejoin="round"/>
</g>
<defs>
<clipPath id="clip0_4051_14">
<rect width="28" height="28" fill="white"/>
</clipPath>
</defs>
</svg>
