<svg width="24" height="24" viewBox="0 0 24 24" fill="none" xmlns="http://www.w3.org/2000/svg">
<path d="M21.7209 12.7519C21.8565 11.0298 21.5303 9.30282 20.7759 7.74888C19.5273 8.93527 18.0513 9.85646 16.4369 10.4569C16.5667 12.0502 16.4948 13.6536 16.2229 15.2289C18.1874 14.7341 20.0488 13.8955 21.7209 12.7519ZM14.6339 15.5499C14.9533 14.0229 15.065 12.4598 14.9659 10.9029C14.0139 11.1299 13.0209 11.2499 11.9999 11.2499C10.9789 11.2499 9.98594 11.1299 9.03394 10.9029C8.93719 12.4598 9.04884 14.0226 9.36594 15.5499C11.1117 15.8175 12.8881 15.8175 14.6339 15.5499ZM9.77194 17.1189C11.2521 17.294 12.7478 17.294 14.2279 17.1189C13.7192 18.7565 12.9682 20.3087 11.9999 21.7239C11.0316 20.3087 10.2806 18.7565 9.77194 17.1189ZM7.77694 15.2299C7.50358 13.654 7.43167 12.0499 7.56294 10.4559C5.94823 9.8556 4.47186 8.93441 3.22294 7.74788C2.46876 9.30221 2.14289 11.0296 2.27894 12.7519C3.95108 13.8955 5.81247 14.7351 7.77694 15.2299ZM21.3559 14.7519C20.851 16.4628 19.8871 18.0028 18.5688 19.2045C17.2505 20.4063 15.6282 21.224 13.8779 21.5689C14.7545 20.0951 15.4234 18.5075 15.8659 16.8509C17.7954 16.4465 19.6485 15.7383 21.3559 14.7529V14.7519ZM2.64394 14.7519C4.32594 15.7229 6.17394 16.4399 8.13394 16.8509C8.57645 18.5075 9.24542 20.0951 10.1219 21.5689C8.37183 21.2241 6.74959 20.4066 5.43129 19.205C4.11298 18.0034 3.14899 16.4636 2.64394 14.7529V14.7519ZM13.8779 2.42988C16.3557 2.91689 18.548 4.34571 19.9939 6.41588C18.9266 7.49426 17.6525 8.34595 16.2479 8.91988C15.8695 6.6277 15.0657 4.42652 13.8779 2.42988ZM11.9999 2.27588C13.4594 4.40798 14.4182 6.84224 14.8049 9.39688C13.9079 9.62688 12.9679 9.74988 11.9999 9.74988C11.0319 9.74988 10.0919 9.62788 9.19494 9.39688C9.58163 6.84223 10.5405 4.40796 11.9999 2.27588ZM10.1219 2.42988C8.93417 4.42651 8.13035 6.62769 7.75194 8.91988C6.3474 8.34598 5.07325 7.49428 4.00594 6.41588C5.45198 4.34601 7.64433 2.91654 10.1219 2.42988Z" fill="#9290C3"/>
</svg>
